<?xml version="1.0" encoding="UTF-8" standalone="no"?>
<!DOCTYPE svg PUBLIC "-//W3C//DTD SVG 1.1//EN" "http://www.w3.org/Graphics/SVG/1.1/DTD/svg11.dtd">
<svg width="100%" height="100%" viewBox="0 0 3334 3334" version="1.1" xmlns="http://www.w3.org/2000/svg" xmlns:xlink="http://www.w3.org/1999/xlink" xml:space="preserve" xmlns:serif="http://www.serif.com/" style="fill-rule:evenodd;clip-rule:evenodd;stroke-linecap:round;stroke-linejoin:round;stroke-miterlimit:1.5;">
    <g transform="matrix(4.16667,0,0,4.16667,-4371.8,0)">
        <g id="sloth" transform="matrix(5.27999e-17,0.862287,-0.847775,5.19112e-17,1879.53,-1132.77)">
            <rect x="1313.68" y="35.738" width="927.765" height="943.647" style="fill:none;"/>
            <clipPath id="_clip1">
                <rect x="1313.68" y="35.738" width="927.765" height="943.647"/>
            </clipPath>
            <g clip-path="url(#_clip1)">
                <g transform="matrix(0.642267,-0.574311,1.0182,1.178,1181.39,263.371)">
                    <g id="Layer3">
                        <path d="M430.871,-4.016C429.527,10.888 423.167,9.688 396.303,179.829C387.7,234.315 384.784,233.335 375.235,287.445C368.849,323.634 374.442,325.792 363.847,376.841C315.066,611.876 307.23,664.772 303.491,690.011C298.252,725.371 281.693,802.684 275.322,819.868C316.861,822.393 345.979,832.099 351.89,834.069C410.75,853.689 414.401,828.834 456.659,843.749C464.026,826.911 466.581,826.488 481.713,829.514C484.301,830.032 526.762,832.686 530.681,832.93C582.065,836.142 558.979,800.251 584.205,749.798C588.197,741.813 621.49,627.732 618.369,586.38C612.932,514.34 636.617,517.458 642.853,445.738C646.472,404.123 647.052,389.312 653.672,373.425C661.513,354.606 647.977,351.219 665.06,317.054C696.099,254.976 675.574,209.226 714.028,108.654C718.954,95.77 722.025,69.289 744.206,2.745C753.317,-24.586 749.544,-32.131 748.192,-34.835" style="fill:rgb(131,105,74);stroke:black;stroke-width:3.72px;"/>
                    </g>
                </g>
                <g id="Layer2" transform="matrix(0.870977,-0.778822,0.765714,0.885887,880.469,455.089)">
                    <path d="M384.284,199.669C380.855,193.054 461.406,209.753 488.023,205.317C496.848,203.846 600.553,195.637 600.553,195.637C600.553,195.637 601.062,215.873 601.57,241.609C601.725,249.425 601.269,257.491 601.57,265.977C604.376,345.065 602.312,389.507 601.57,400.078C595.353,399.599 496.454,403.323 488.451,404.212C456.049,407.813 392.509,402.148 385.511,403.272C385.037,395.475 380.403,337.547 383.041,305.666C383.846,295.936 383.261,209.896 384.284,199.669Z" style="fill:rgb(216,198,151);stroke:black;stroke-width:4px;"/>
                    <path d="M384.641,282.15C387.511,282.462 434.635,247.359 454.419,238.096C470.022,268.978 506.605,276.98 476.482,295.053C469.014,299.534 390.044,346.916 383.288,351.344C382.226,304.223 386.113,286.565 384.641,282.15Z" style="fill:rgb(86,67,47);stroke:black;stroke-width:4px;"/>
                    <path d="M472.435,300.42C469.107,300.483 517.649,292.848 522.297,302.145C527.207,311.965 520.779,328.414 505.509,328.892C474.819,329.851 472.048,326.525 470.226,324.339C463.485,316.249 464.712,301.385 472.435,300.42C472.76,300.379 472.355,300.501 472.435,300.42Z" style="fill:rgb(86,67,47);stroke:black;stroke-width:4px;"/>
                    <path d="M439.496,328.323C433.994,331.991 441.162,337.415 522.012,333.16C550.571,331.657 552.834,333.524 554.165,327.754" style="fill:none;stroke:black;stroke-width:4px;"/>
                    <g transform="matrix(1,0,0,0.841763,0,38.2315)">
                        <path d="M383.63,239.609C387.028,236.212 436.965,214.739 437.168,214.535C443.295,208.409 478.678,225.355 492.002,233.549C532.959,212.918 533.621,206.359 544.295,213.475C548.542,216.306 549.107,216.833 601.592,243.263C600.963,231.924 600.626,196.828 600.514,182.254C600.489,179.054 600.52,183.201 600.514,182.254C574.282,166.417 516.123,150.623 481.966,150.067C448.962,149.529 384.094,188.158 384.094,188.158C385.184,206.891 383.292,237.132 383.63,239.609Z" style="fill:rgb(154,112,56);stroke:black;stroke-width:4.33px;"/>
                    </g>
                    <g transform="matrix(1,1.11022e-16,2.29897e-16,1.21603,-3.14062e-15,-86.405)">
                        <path d="M382.459,400.377C312.499,423.818 295.984,539.591 325.271,686.026C329.4,706.672 347.273,757.671 405.897,786.984C415.219,791.644 518.689,832.954 528.478,818.27C552.416,782.363 592.779,482.013 601.664,425.688C601.983,423.664 602.77,406.329 601.57,400.078C578.509,404.16 532.641,402.118 485.395,404.368C402.771,408.302 385.002,397.833 382.459,400.377Z" style="fill:rgb(216,198,151);stroke:black;stroke-width:3.59px;"/>
                    </g>
                    <g transform="matrix(1,1.11022e-16,-1.11022e-16,1,-15.4207,108.992)">
                        <g transform="matrix(1,0,0,1,-2.05553,-1.32208)">
                            <path d="M595.835,871.853C596.645,873.817 634.107,902.981 668.296,910.467C647.353,880.505 645.981,882.096 621.311,854.685C659.55,879.019 682.953,885.705 688.714,887.352C669.73,860.581 642.859,833.652 638.523,829.307C680.626,848.614 675.35,847.538 706.836,855.695C702.716,851.738 675.977,824.676 650.797,812.013C617.744,861.256 605.111,867.636 599.248,869.59C598.479,869.847 596.134,871.853 595.835,871.853Z" style="fill:rgb(167,158,146);stroke:black;stroke-width:4px;"/>
                        </g>
                        <path d="M439.271,671.991C437.926,673.426 435.437,672.712 422.769,690.498C413.342,703.733 390.218,728.734 399.743,738.259C402.943,741.459 408.168,758.906 438.722,777.239C468.517,795.116 518.919,815.147 593.78,870.531C634.012,844.172 628.802,836.97 648.741,810.691C610.463,783.256 549.422,730.691 509.742,706.566C489.581,694.308 486.823,687.256 439.271,671.991Z" style="fill:rgb(184,160,115);stroke:black;stroke-width:4px;"/>
                    </g>
                    <g>
                        <g transform="matrix(0.810163,0,0,1,72.6435,0)">
                            <path d="M742.854,403.246C749.734,403.295 741.49,403.225 742.854,403.246C767.249,403.626 762.781,405.429 786.975,407.445C819.022,410.116 819.016,405.922 850.06,412.574C837.492,419.905 835.124,418.535 740.735,433.436C749.32,433.611 852.065,435.816 849.034,446.425C847.082,453.257 842.125,443.28 761.843,463.35C751.923,465.83 746.073,465.859 739.571,469.455C751.688,470.492 845.679,475.248 854.734,475.754C834.476,485.641 833.279,479.575 743.067,495.817C742.105,470.034 736.435,469.981 738.763,444.373C739.049,441.226 742.056,407.82 742.854,403.246Z" style="fill:rgb(167,158,146);stroke:black;stroke-width:4.4px;"/>
                        </g>
                        <g transform="matrix(0.810163,0,0,1,76.7956,1.16955)">
                            <path d="M385.382,403.342C369.38,408.676 377.448,454.873 378.682,458.572C382.276,469.357 374.014,496.05 405.897,496.688C462.575,497.821 596.302,489.304 684.91,496.688C739.949,501.275 737.597,499.139 737.942,494.648C739.218,478.055 733.197,459.666 733.255,448.36C733.421,415.642 738.877,403.493 736.199,402.829C706.212,395.393 424.439,401.731 385.382,403.342Z" style="fill:rgb(184,160,115);stroke:black;stroke-width:4.4px;"/>
                        </g>
                    </g>
                    <path d="M535.935,239.926C529.921,243.694 511.234,280.543 509.364,284.229C520.333,299.414 553.023,315.839 569.172,328.758C589.534,345.048 599.769,350.403 602.966,351.493C603.862,338.7 603.952,300.168 602.398,281.045C573.912,257.151 531.966,239.926 535.935,239.926Z" style="fill:rgb(86,67,47);stroke:black;stroke-width:4px;"/>
                    <g transform="matrix(1.22513,0,0,0.862312,-102.087,41.3563)">
                        <path d="M442.765,266.523C433.03,267.824 432.902,269.468 431.717,269.799C418.077,273.612 412.518,303.511 443.895,300.025C452.654,299.051 460.022,264.217 442.765,266.523Z" style="fill:rgb(56,49,38);stroke:black;stroke-width:3.78px;"/>
                    </g>
                    <g transform="matrix(1.35146,0,0,0.967665,-190.559,9.75349)">
                        <path d="M559.144,273.353C555.487,272.374 552.097,274.282 547.805,275.621C536.839,279.042 540.047,304.776 557.604,301.264C573.869,298.012 575.594,277.757 559.144,273.353Z" style="fill:rgb(56,49,38);stroke:black;stroke-width:3.4px;"/>
                    </g>
                    <g transform="matrix(1,0,0,1,-4.06212,-3.28089)">
                        <ellipse cx="437.389" cy="291.082" rx="9.44" ry="9.233" style="stroke:black;stroke-width:4px;"/>
                    </g>
                    <g transform="matrix(0.882408,0,0,0.935197,63.4162,14.9838)">
                        <ellipse cx="562.4" cy="291.721" rx="10.688" ry="9.873" style="stroke:black;stroke-width:4.4px;"/>
                    </g>
                </g>
            </g>
        </g>
    </g>
</svg>
